<?xml version="1.0" encoding="UTF-8"?>
<svg version="1.1" xmlns="http://www.w3.org/2000/svg" width="646" height="144">
<path d="M0 0 C3.96 0 7.92 0 12 0 C12 19.8 12 39.6 12 60 C8.37 60 4.74 60 1 60 C0.67 58.68 0.34 57.36 0 56 C-1.3921875 56.9590625 -1.3921875 56.9590625 -2.8125 57.9375 C-7.41105973 60.91303865 -10.56818954 61.44523037 -16 61 C-21.87595386 59.04878193 -25.5454222 56.08026146 -29 51 C-32.03299377 43.47646069 -32.4572449 34.71497008 -30.0546875 26.94140625 C-27.84564942 22.26630365 -25.51525028 18.73291464 -21 16 C-17.99944898 14.99981633 -15.82917059 14.80214391 -12.6875 14.75 C-11.76324219 14.72421875 -10.83898437 14.6984375 -9.88671875 14.671875 C-7 15 -7 15 -1 18 C-0.67 12.06 -0.34 6.12 0 0 Z M-17 27 C-19.29277392 30.36222215 -19.2986339 33.43943991 -19.3125 37.4375 C-19.33763672 39.10619141 -19.33763672 39.10619141 -19.36328125 40.80859375 C-18.96035875 44.34824621 -18.12973576 46.17199023 -16 49 C-12.2626144 51.4915904 -10.42668417 51.45793285 -6 51 C-2.61060444 48.86320715 -1.27417443 47.8225233 0 44 C0.14554833 41.8783532 0.22080412 39.75143294 0.25 37.625 C0.27578125 36.50351563 0.3015625 35.38203125 0.328125 34.2265625 C-0.03437968 30.6619331 -0.85246025 28.83782038 -3 26 C-8.48117967 23.12238067 -11.7730956 23.88609951 -17 27 Z " fill="#000000" transform="translate(308,41)"/>
<path d="M0 0 C3.63 0 7.26 0 11 0 C11.33 6.6 11.66 13.2 12 20 C13.65 18.68 15.3 17.36 17 16 C21.37097514 13.81451243 27.49370539 14.26996613 32.10546875 15.61328125 C36.99978674 18.06584236 39.70003001 22.13394778 42 27 C44.15808704 33.50157868 44.02249592 41.98231418 41.8125 48.4375 C39.1594179 53.65217861 36.88796545 56.9511303 31.625 59.875 C25.91547834 61.64692052 21.98322257 61.67952849 16.625 59.0625 C13.23849372 57.23849372 13.23849372 57.23849372 12 56 C11.67 57.32 11.34 58.64 11 60 C7.37 60 3.74 60 0 60 C0 40.2 0 20.4 0 0 Z M14 27 C10.73127617 31.88551197 10.62888397 37.05582867 11.4140625 42.7265625 C12.22800807 45.8846713 13.64140436 47.78434955 16 50 C19.13871188 51.56935594 21.53855822 51.35201103 25 51 C27.63016161 48.8272578 29.47336894 47.05326212 31 44 C31.14851844 42.06640414 31.22130833 40.12657903 31.25 38.1875 C31.27578125 37.14980469 31.3015625 36.11210938 31.328125 35.04296875 C30.95535818 31.58600028 30.04896912 29.78074381 28 27 C22.7182575 23.17073669 19.43881544 23.37412304 14 27 Z " fill="#000000" transform="translate(326,41)"/>
<path d="M0 0 C4.02095989 3.88828863 6.61548511 8.00883183 7.3359375 13.61328125 C7.44229333 20.96246879 6.48603723 26.29092247 1.3515625 31.75390625 C-4.67269298 37.21256569 -9.92858926 38.47687298 -17.99609375 38.30859375 C-24.24332011 37.66681107 -28.237099 35.12529799 -32.375 30.5 C-36.93406583 24.89667887 -37.50368161 20.44376102 -37.375 13.26171875 C-36.636647 6.83958589 -33.23203762 2.97149585 -28.6875 -1.375 C-19.71725777 -8.48532159 -8.5413666 -6.95617848 0 0 Z M-20.375 10.5625 C-22.5996142 13.8994213 -22.50030235 16.06905293 -22 20 C-21.14780077 22.10242444 -21.14780077 22.10242444 -19 23 C-15.41957756 23.52960415 -12.24021772 23.65886567 -9 21.9375 C-7.39143478 18.82090489 -7.57786619 16.43737531 -8 13 C-9.47993156 10.43661311 -9.47993156 10.43661311 -12 9 C-15.63632575 8.39394571 -17.28314769 8.52838664 -20.375 10.5625 Z " fill="#132AFD" transform="translate(130,64)"/>
<path d="M0 0 C5.19904657 6.49880821 6.41147774 12.90760443 6 21 C5.67 21.66 5.34 22.32 5 23 C-4.57 23 -14.14 23 -24 23 C-21.72011346 28.67480261 -21.72011346 28.67480261 -19.140625 30.3984375 C-16.48319532 31.14523343 -14.48087518 30.98432568 -11.75 30.625 C-10.85796875 30.51414063 -9.9659375 30.40328125 -9.046875 30.2890625 C-8.37140625 30.19367188 -7.6959375 30.09828125 -7 30 C-6.67 28.68 -6.34 27.36 -6 26 C-2.37 26 1.26 26 5 26 C5 29.29234294 4.54181964 31.37542032 2.36328125 33.88671875 C-3.82226575 39.50673002 -9.11974201 41.52190598 -17.4765625 41.30859375 C-24.17243845 40.48974824 -28.51518975 36.99606124 -32.7734375 31.9765625 C-36.77084793 25.53487564 -36.84218934 18.33048478 -36 11 C-33.71730891 3.93497674 -30.36807563 -0.32279236 -24.0625 -4.1875 C-15.80306433 -7.44121708 -6.7181612 -5.75842388 0 0 Z M-24 9 C-24.33 10.32 -24.66 11.64 -25 13 C-18.73 13 -12.46 13 -6 13 C-6.4178599 7.37756883 -6.4178599 7.37756883 -8.5625 5.125 C-15.16851732 2.07606893 -19.73565978 3.31421303 -24 9 Z " fill="#000000" transform="translate(490,61)"/>
<path d="M0 0 C3.55114691 3.52553768 5.93963082 7.55546011 7.0625 12.4375 C7.0625 15.7375 7.0625 19.0375 7.0625 22.4375 C-2.8375 22.4375 -12.7375 22.4375 -22.9375 22.4375 C-21.72098771 29.12159308 -21.72098771 29.12159308 -18.6875 31.375 C-14.75573714 32.8940902 -11.67049145 33.06330247 -7.6875 31.625 C-5.63576833 30.39335872 -5.63576833 30.39335872 -3.9375 27.4375 C-1.3359375 27.14453125 -1.3359375 27.14453125 1.6875 27.25 C3.19183594 27.29060547 3.19183594 27.29060547 4.7265625 27.33203125 C5.49742187 27.36683594 6.26828125 27.40164062 7.0625 27.4375 C4.66624968 33.86954032 2.04938924 37.70510424 -4.0625 41.25 C-10.19944546 43.57642377 -17.24726512 43.54288217 -23.25 40.875 C-28.52834195 37.7968704 -31.98046049 33.74309519 -34.3125 28.125 C-35.88710953 18.83480379 -35.238799 10.74315911 -30.1875 2.625 C-22.01067465 -5.32469131 -9.45433917 -7.33526315 0 0 Z M-21.9375 9.4375 C-21.6075 10.4275 -21.2775 11.4175 -20.9375 12.4375 C-16.3175 12.4375 -11.6975 12.4375 -6.9375 12.4375 C-6.6075 11.1175 -6.2775 9.7975 -5.9375 8.4375 C-8.46375679 5.91124321 -10.45213135 5.16256384 -13.9375 5 C-17.84969239 5.12408073 -19.54833545 6.25194727 -21.9375 9.4375 Z M-5.9375 10.4375 C-4.9375 12.4375 -4.9375 12.4375 -4.9375 12.4375 Z M-22.9375 11.4375 C-22.9375 12.4275 -22.9375 13.4175 -22.9375 14.4375 C-16.6675 14.4375 -10.3975 14.4375 -3.9375 14.4375 C-3.9375 14.1075 -3.9375 13.7775 -3.9375 13.4375 C-9.8775 13.4375 -15.8175 13.4375 -21.9375 13.4375 C-22.2675 12.7775 -22.5975 12.1175 -22.9375 11.4375 Z " fill="#000000" transform="translate(267.9375,59.5625)"/>
<path d="M0 0 C3.85637563 4.66245684 4.5558705 8.36226887 4.390625 14.2421875 C4.38496521 15.01055939 4.37930542 15.77893127 4.37347412 16.57058716 C4.35122173 19.00604621 4.30105041 21.43999157 4.25 23.875 C4.22992042 25.5338328 4.2116722 27.19268884 4.1953125 28.8515625 C4.15139406 32.90161799 4.08244763 36.95055306 4 41 C0.37 41 -3.26 41 -7 41 C-7.33 39.68 -7.66 38.36 -8 37 C-8.61875 37.639375 -9.2375 38.27875 -9.875 38.9375 C-14.16417451 41.76835518 -17.910831 42.19879566 -23 42 C-28.0962508 40.90932511 -31.12957244 38.30564134 -34 34 C-35.60167908 30.79664185 -35.34898532 27.48314196 -35 24 C-33.30349583 19.33461354 -30.40537522 17.84100305 -26.1328125 15.796875 C-21.63580903 14.1166759 -17.46267803 13.88502552 -12.6875 13.9375 C-11.08455078 13.95103516 -11.08455078 13.95103516 -9.44921875 13.96484375 C-8.64097656 13.97644531 -7.83273437 13.98804687 -7 14 C-7.59861742 11.64828869 -8.26924352 9.3140622 -9 7 C-12.19360257 5.40319871 -15.54372626 5.34498038 -19 6 C-19.61875 6.825 -20.2375 7.65 -20.875 8.5 C-23 11 -23 11 -25.4609375 11.33203125 C-27.99023785 11.31431906 -30.48033255 11.21638366 -33 11 C-32.75331325 6.80632522 -32.44696258 4.5462876 -29.75 1.25 C-20.49935247 -6.31871162 -9.79300805 -7.10473133 0 0 Z M-23 25 C-23.41746608 28.12635209 -23.41746608 28.12635209 -23 31 C-19.65707862 33.36790265 -16.79142752 33.22158832 -12.90625 32.60546875 C-9.72928213 31.59639084 -8.55648802 29.85356138 -7 27 C-6.87470403 24.38525423 -6.87470403 24.38525423 -7 22 C-15.69850225 21.19026122 -15.69850225 21.19026122 -23 25 Z " fill="#000000" transform="translate(406,60)"/>
<path d="M0 0 C3.33024344 3.32341917 5.26898333 6.1961875 6.5 10.8125 C6.5 14.4425 6.5 18.0725 6.5 21.8125 C-3.4 21.8125 -13.3 21.8125 -23.5 21.8125 C-21.47391591 29.30678519 -21.47391591 29.30678519 -18.59765625 31.3203125 C-16.2223103 31.87765624 -14.36498929 31.94216047 -11.9375 31.6875 C-11.17308594 31.62304688 -10.40867188 31.55859375 -9.62109375 31.4921875 C-7.31778518 30.99057042 -7.31778518 30.99057042 -6.078125 28.7734375 C-4.5 26.8125 -4.5 26.8125 -1.80078125 26.421875 C-0.81464844 26.46828125 0.17148438 26.5146875 1.1875 26.5625 C2.18136719 26.59859375 3.17523438 26.6346875 4.19921875 26.671875 C4.95847656 26.71828125 5.71773437 26.7646875 6.5 26.8125 C5.02609151 32.09400544 3.37098031 36.01006451 -1.41015625 39.01171875 C-8.39744649 42.52384877 -15.25986739 43.03270708 -22.75 40.75 C-28.03270019 38.44482174 -31.16045638 34.6822522 -33.5703125 29.51953125 C-36.28521247 21.82731468 -36.17962795 14.01051807 -32.875 6.5 C-29.8557059 1.21080493 -25.60243733 -2.79265349 -19.75 -4.6875 C-12.56167438 -6.01093204 -5.67725863 -4.63364491 0 0 Z M-22.5 8.8125 C-22.83 10.4625 -23.16 12.1125 -23.5 13.8125 C-17.23 13.8125 -10.96 13.8125 -4.5 13.8125 C-5.90286099 8.23617583 -5.90286099 8.23617583 -9.5 4.8125 C-15.23769115 4.16469616 -18.4570692 4.27951699 -22.5 8.8125 Z " fill="#000000" transform="translate(224.5,60.1875)"/>
<path d="M0 0 C1.35523838 2.98358565 2.15548198 5.8095986 3 9 C-0.63 9 -4.26 9 -8 9 C-8.33 7.68 -8.66 6.36 -9 5 C-10.43640171 4.80426392 -11.87419504 4.61872184 -13.3125 4.4375 C-14.11300781 4.33308594 -14.91351563 4.22867188 -15.73828125 4.12109375 C-18.16817116 3.85244822 -18.16817116 3.85244822 -21 5 C-21 6.65 -21 8.3 -21 10 C-19.70906867 10.43966502 -18.41719164 10.87655299 -17.125 11.3125 C-16.30515625 11.5909375 -15.4853125 11.869375 -14.640625 12.15625 C-12.91648734 12.70715789 -11.17595432 13.20975708 -9.421875 13.65625 C-3.31358291 15.23016575 0.58528035 17.48295241 5 22 C3.34546597 33.21164505 3.34546597 33.21164505 -1 37 C-7.34409358 41.00470907 -13.60293181 42.04303983 -21 41 C-25.96272589 39.65135083 -29.14769179 38.00146214 -32.5 34.0625 C-33.87360508 31.25805629 -34.46507889 29.03979206 -35 26 C-33.06440687 25.86495862 -31.126128 25.76798871 -29.1875 25.6875 C-28.10855469 25.62949219 -27.02960938 25.57148437 -25.91796875 25.51171875 C-24.95503906 25.67285156 -23.99210938 25.83398438 -23 26 C-21.95037984 27.63587142 -20.94773893 29.3030708 -20 31 C-17.79824693 31.63888946 -17.79824693 31.63888946 -15.4375 31.375 C-14.65246094 31.34148437 -13.86742187 31.30796875 -13.05859375 31.2734375 C-10.94013906 31.10571533 -10.94013906 31.10571533 -9 30 C-8.34444881 27.47266765 -8.34444881 27.47266765 -8 25 C-9.08539063 24.75765625 -10.17078125 24.5153125 -11.2890625 24.265625 C-12.73452507 23.92772466 -14.17982939 23.58914687 -15.625 23.25 C-16.69427734 23.01410156 -16.69427734 23.01410156 -17.78515625 22.7734375 C-22.56645054 21.63294528 -26.00758213 19.99280797 -30 17 C-30.598125 16.566875 -31.19625 16.13375 -31.8125 15.6875 C-33.80503543 12.85600228 -33.88606236 10.41812914 -34 7 C-32.78813563 2.31412444 -31.19668633 -0.20811293 -27.25 -2.875 C-18.70100812 -7.58471734 -7.25211177 -6.89835022 0 0 Z " fill="#000000" transform="translate(184,61)"/>
<path d="M0 0 C3.56095989 3.83487988 4.4375 5.35258597 4.4375 10.625 C0.8075 10.625 -2.8225 10.625 -6.5625 10.625 C-7.2225 9.305 -7.8825 7.985 -8.5625 6.625 C-12.13724656 5.69821385 -14.5117992 5.22088431 -18 6.5625 C-18.515625 6.913125 -19.03125 7.26375 -19.5625 7.625 C-19.5625 8.945 -19.5625 10.265 -19.5625 11.625 C-18.96824219 11.79515625 -18.37398438 11.9653125 -17.76171875 12.140625 C-15.01991476 12.9422722 -12.2904167 13.77728086 -9.5625 14.625 C-8.58152344 14.92664063 -7.60054688 15.22828125 -6.58984375 15.5390625 C-2.50358317 16.89198323 0.76768528 18.07980197 4.125 20.8125 C6.02003798 24.87329567 6.41473372 28.23496546 5.4375 32.625 C3.20114799 36.8691717 0.06782236 39.64833474 -4.3125 41.5625 C-11.11338246 43.65208411 -18.25098674 43.4937547 -24.8046875 40.66796875 C-27.98777909 38.77933441 -29.53967666 36.75118152 -31.5625 33.625 C-32.375 30.25 -32.375 30.25 -32.5625 27.625 C-28.9325 27.625 -25.3025 27.625 -21.5625 27.625 C-20.9025 28.945 -20.2425 30.265 -19.5625 31.625 C-16.91791621 32.94729189 -14.88488699 32.72177194 -11.9375 32.6875 C-10.93460937 32.67847656 -9.93171875 32.66945312 -8.8984375 32.66015625 C-8.12757813 32.64855469 -7.35671875 32.63695312 -6.5625 32.625 C-6.5625 30.975 -6.5625 29.325 -6.5625 27.625 C-10.93019986 25.92645005 -15.22824107 24.42132328 -19.75 23.1875 C-24.57193577 21.76536226 -27.87138152 19.96035409 -30.875 15.8125 C-32.19830668 11.60197873 -32.15982653 7.97684426 -30.375 3.9375 C-26.63043878 -0.84004363 -23.01414502 -3.08721603 -17.09765625 -4.18359375 C-11.05741087 -4.63963693 -4.85511524 -3.82488347 0 0 Z " fill="#000000" transform="translate(446.5625,59.375)"/>
<path d="M0 0 C0.33 0 0.66 0 1 0 C1 19.8 1 39.6 1 60 C0.67 60 0.34 60 0 60 C0 40.2 0 20.4 0 0 Z " fill="#000000" transform="translate(324,41)"/>
<path d="M0 0 C0.33 0 0.66 0 1 0 C1 19.8 1 39.6 1 60 C0.67 60 0.34 60 0 60 C0 40.2 0 20.4 0 0 Z " fill="#000000" transform="translate(321,41)"/>
<path d="M0 0 C0.33 0 0.66 0 1 0 C1.19904662 3.97867562 1.38211694 7.95793801 1.5625 11.9375 C1.61857422 13.05447266 1.67464844 14.17144531 1.73242188 15.32226562 C2.01270914 21.69412948 1.90419952 27.68399894 1 34 C0.67 34 0.34 34 0 34 C0 22.78 0 11.56 0 0 Z " fill="#000000" transform="translate(411,66)"/>
<path d="M0 0 C9.24 0 18.48 0 28 0 C28 0.33 28 0.66 28 1 C19.09 1 10.18 1 1 1 C0.67 1.99 0.34 2.98 0 4 C0 2.68 0 1.36 0 0 Z " fill="#000000" transform="translate(246,83)"/>
<path d="M0 0 C9.57 0 19.14 0 29 0 C29 0.33 29 0.66 29 1 C19.76 1 10.52 1 1 1 C0.67 1.66 0.34 2.32 0 3 C0 2.01 0 1.02 0 0 Z " fill="#000000" transform="translate(202,83)"/>
<path d="M0 0 C0.33 0.66 0.66 1.32 1 2 C5.62 2 10.24 2 15 2 C15.33 1.34 15.66 0.68 16 0 C16 0.99 16 1.98 16 3 C10.72 3 5.44 3 0 3 C0 2.01 0 1.02 0 0 Z " fill="#000000" transform="translate(467,70)"/>
<path d="M0 0 C0.33 0 0.66 0 1 0 C1.33 5.94 1.66 11.88 2 18 C1.34 18.33 0.68 18.66 0 19 C0 12.73 0 6.46 0 0 Z " fill="#000000" transform="translate(338,41)"/>
<path d="M0 0 C5.61 0 11.22 0 17 0 C17 0.33 17 0.66 17 1 C11.39 1 5.78 1 0 1 C0 0.67 0 0.34 0 0 Z " fill="#000000" transform="translate(202,72)"/>
<path d="M0 0 C1.4370809 -0.05422947 2.87475462 -0.09289723 4.3125 -0.125 C5.11300781 -0.14820312 5.91351563 -0.17140625 6.73828125 -0.1953125 C9 0 9 0 12 2 C8.04 1.67 4.08 1.34 0 1 C0 0.67 0 0.34 0 0 Z " fill="#000000" transform="translate(374,72)"/>
<path d="M0 0 C3.96 0 7.92 0 12 0 C12 0.33 12 0.66 12 1 C8.04 1 4.08 1 0 1 C0 0.67 0 0.34 0 0 Z " fill="#142AFD" transform="translate(109,103)"/>
<path d="M0 0 C2.97 0 5.94 0 9 0 C8.67 1.32 8.34 2.64 8 4 C8 3.01 8 2.02 8 1 C5.36 1 2.72 1 0 1 C0 0.67 0 0.34 0 0 Z " fill="#000000" transform="translate(389,83)"/>
<path d="M0 0 C0.33 0 0.66 0 1 0 C1.22174933 1.45635371 1.42698698 2.91522956 1.625 4.375 C1.74101562 5.18710938 1.85703125 5.99921875 1.9765625 6.8359375 C1.98429687 7.55007812 1.99203125 8.26421875 2 9 C1.34 9.66 0.68 10.32 0 11 C0 7.37 0 3.74 0 0 Z " fill="#000000" transform="translate(370,73)"/>
<path d="M0 0 C0.33 1.32 0.66 2.64 1 4 C-1.97 4 -4.94 4 -8 4 C-8 3.67 -8 3.34 -8 3 C-5.36 3 -2.72 3 0 3 C0 2.01 0 1.02 0 0 Z " fill="#000000" transform="translate(397,69)"/>
<path d="M0 0 C3.63 0 7.26 0 11 0 C11 0.33 11 0.66 11 1 C7.37 1 3.74 1 0 1 C0 0.67 0 0.34 0 0 Z " fill="#000000" transform="translate(326,102)"/>
<path d="M0 0 C3.63 0 7.26 0 11 0 C11 0.33 11 0.66 11 1 C7.37 1 3.74 1 0 1 C0 0.67 0 0.34 0 0 Z " fill="#000000" transform="translate(309,102)"/>
<path d="M0 0 C3.63 0 7.26 0 11 0 C11 0.33 11 0.66 11 1 C7.37 1 3.74 1 0 1 C0 0.67 0 0.34 0 0 Z " fill="#000000" transform="translate(414,85)"/>
<path d="M0 0 C0.33 0 0.66 0 1 0 C1 3.3 1 6.6 1 10 C-1.56687367 6.1496895 -0.83288724 4.41430237 0 0 Z " fill="#000000" transform="translate(452,73)"/>
<path d="M0 0 C0.33 0 0.66 0 1 0 C1 3.63 1 7.26 1 11 C0.67 11 0.34 11 0 11 C0 7.37 0 3.74 0 0 Z " fill="#000000" transform="translate(355,73)"/>
<path d="M0 0 C3.3 0 6.6 0 10 0 C10 0.33 10 0.66 10 1 C6.7 1 3.4 1 0 1 C0 0.67 0 0.34 0 0 Z " fill="#000000" transform="translate(428,103)"/>
<path d="M0 0 C3.3 0 6.6 0 10 0 C10 0.33 10 0.66 10 1 C6.7 1 3.4 1 0 1 C0 0.67 0 0.34 0 0 Z " fill="#000000" transform="translate(400,102)"/>
<path d="M0 0 C3.3 0 6.6 0 10 0 C10 0.33 10 0.66 10 1 C6.7 1 3.4 1 0 1 C0 0.67 0 0.34 0 0 Z " fill="#000000" transform="translate(485,85)"/>
<path d="M0 0 C3.3 0 6.6 0 10 0 C10 0.33 10 0.66 10 1 C6.7 1 3.4 1 0 1 C0 0.67 0 0.34 0 0 Z " fill="#000000" transform="translate(264,85)"/>
<path d="M0 0 C3.3 0 6.6 0 10 0 C10 0.33 10 0.66 10 1 C6.7 1 3.4 1 0 1 C0 0.67 0 0.34 0 0 Z " fill="#000000" transform="translate(220,85)"/>
<path d="M0 0 C3.3 0 6.6 0 10 0 C10 0.33 10 0.66 10 1 C6.7 1 3.4 1 0 1 C0 0.67 0 0.34 0 0 Z " fill="#000000" transform="translate(150,85)"/>
<path d="M0 0 C0.33 0 0.66 0 1 0 C1 3.3 1 6.6 1 10 C0.67 10 0.34 10 0 10 C0 6.7 0 3.4 0 0 Z " fill="#142BFC" transform="translate(138,76)"/>
<path d="M0 0 C3.3 0 6.6 0 10 0 C10 0.33 10 0.66 10 1 C6.7 1 3.4 1 0 1 C0 0.67 0 0.34 0 0 Z " fill="#000000" transform="translate(176,71)"/>
<path d="M0 0 C3.3 0 6.6 0 10 0 C10 0.33 10 0.66 10 1 C6.7 1 3.4 1 0 1 C0 0.67 0 0.34 0 0 Z " fill="#000000" transform="translate(346,54)"/>
<path d="M0 0 C3.3 0 6.6 0 10 0 C10 0.33 10 0.66 10 1 C6.7 1 3.4 1 0 1 C0 0.67 0 0.34 0 0 Z " fill="#000000" transform="translate(290,54)"/>
<path d="M0 0 C3.3 0 6.6 0 10 0 C10 0.33 10 0.66 10 1 C6.7 1 3.4 1 0 1 C0 0.67 0 0.34 0 0 Z " fill="#000000" transform="translate(327,39)"/>
<path d="M0 0 C3.3 0 6.6 0 10 0 C10 0.33 10 0.66 10 1 C6.7 1 3.4 1 0 1 C0 0.67 0 0.34 0 0 Z " fill="#000000" transform="translate(309,39)"/>
<path d="M0 0 C2.97 0 5.94 0 9 0 C9 0.33 9 0.66 9 1 C6.03 1 3.06 1 0 1 C0 0.67 0 0.34 0 0 Z " fill="#000000" transform="translate(471,103)"/>
<path d="M0 0 C2.97 0 5.94 0 9 0 C9 0.33 9 0.66 9 1 C6.03 1 3.06 1 0 1 C0 0.67 0 0.34 0 0 Z " fill="#000000" transform="translate(250,103)"/>
<path d="M0 0 C2.97 0 5.94 0 9 0 C9 0.33 9 0.66 9 1 C6.03 1 3.06 1 0 1 C0 0.67 0 0.34 0 0 Z " fill="#000000" transform="translate(164,103)"/>
<path d="M0 0 C2.97 0 5.94 0 9 0 C9 0.33 9 0.66 9 1 C6.03 1 3.06 1 0 1 C0 0.67 0 0.34 0 0 Z " fill="#000000" transform="translate(429,91)"/>
<path d="M0 0 C2.97 0 5.94 0 9 0 C9 0.33 9 0.66 9 1 C6.03 1 3.06 1 0 1 C0 0.67 0 0.34 0 0 Z " fill="#000000" transform="translate(164,91)"/>
<path d="M0 0 C0.33 0 0.66 0 1 0 C1 2.31 1 4.62 1 7 C0.34 6.67 -0.32 6.34 -1 6 C-0.67 4.02 -0.34 2.04 0 0 Z " fill="#000000" transform="translate(369,85)"/>
<path d="M0 0 C2.97 0 5.94 0 9 0 C9 0.33 9 0.66 9 1 C6.03 1 3.06 1 0 1 C0 0.67 0 0.34 0 0 Z " fill="#000000" transform="translate(441,71)"/>
<path d="M0 0 C2.64 0 5.28 0 8 0 C8 0.33 8 0.66 8 1 C5.36 1 2.72 1 0 1 C0 0.67 0 0.34 0 0 Z " fill="#000000" transform="translate(207,103)"/>
<path d="M0 0 C2 3.75 2 3.75 2 6 C1.34 6 0.68 6 0 6 C0 4.02 0 2.04 0 0 Z " fill="#000000" transform="translate(453,85)"/>
<path d="M0 0 C2.64 0 5.28 0 8 0 C8 0.33 8 0.66 8 1 C5.36 1 2.72 1 0 1 C0 0.67 0 0.34 0 0 Z " fill="#152CFD" transform="translate(111,85)"/>
<path d="M0 0 C2.64 0 5.28 0 8 0 C8 0.33 8 0.66 8 1 C5.36 1 2.72 1 0 1 C0 0.67 0 0.34 0 0 Z " fill="#000000" transform="translate(471,66)"/>
<path d="M0 0 C2.64 0 5.28 0 8 0 C8 0.33 8 0.66 8 1 C5.36 1 2.72 1 0 1 C0 0.67 0 0.34 0 0 Z " fill="#000000" transform="translate(387,66)"/>
<path d="M0 0 C2.64 0 5.28 0 8 0 C8 0.33 8 0.66 8 1 C5.36 1 2.72 1 0 1 C0 0.67 0 0.34 0 0 Z " fill="#000000" transform="translate(250,66)"/>
<path d="M0 0 C2.31 0 4.62 0 7 0 C7 0.33 7 0.66 7 1 C4.69 1 2.38 1 0 1 C0 0.67 0 0.34 0 0 Z " fill="#000000" transform="translate(344,90)"/>
<path d="M0 0 C2.31 0 4.62 0 7 0 C7 0.33 7 0.66 7 1 C4.69 1 2.38 1 0 1 C0 0.67 0 0.34 0 0 Z " fill="#000000" transform="translate(295,90)"/>
<path d="M0 0 C0.33 0 0.66 0 1 0 C1 2.31 1 4.62 1 7 C0.67 7 0.34 7 0 7 C0 4.69 0 2.38 0 0 Z " fill="#132BFE" transform="translate(120,77)"/>
<path d="M0 0 C0.33 0 0.66 0 1 0 C1 2.31 1 4.62 1 7 C0.67 7 0.34 7 0 7 C0 4.69 0 2.38 0 0 Z " fill="#152CFD" transform="translate(109,77)"/>
<path d="M0 0 C0.66 0.66 1.32 1.32 2 2 C1.625 4.125 1.625 4.125 1 6 C0.67 4.02 0.34 2.04 0 0 Z " fill="#000000" transform="translate(231,68)"/>
<path d="M0 0 C0.99 1.485 0.99 1.485 2 3 C1.67 3.99 1.34 4.98 1 6 C0.67 4.02 0.34 2.04 0 0 Z " fill="#000000" transform="translate(452,66)"/>
<path d="M0 0 C0.33 0 0.66 0 1 0 C1 2.31 1 4.62 1 7 C0.67 7 0.34 7 0 7 C0 4.69 0 2.38 0 0 Z " fill="#000000" transform="translate(413,66)"/>
<path d="M0 0 C2.31 0 4.62 0 7 0 C7 0.33 7 0.66 7 1 C4.69 1 2.38 1 0 1 C0 0.67 0 0.34 0 0 Z " fill="#000000" transform="translate(207,66)"/>
<path d="M0 0 C0.99 1.485 0.99 1.485 2 3 C1.67 3.66 1.34 4.32 1 5 C0.67 3.35 0.34 1.7 0 0 Z " fill="#000000" transform="translate(232,85)"/>
<path d="M0 0 C1.98 0 3.96 0 6 0 C6 0.33 6 0.66 6 1 C4.02 1 2.04 1 0 1 C0 0.67 0 0.34 0 0 Z " fill="#142AFD" transform="translate(112,74)"/>
<path d="M0 0 C0.33 0.99 0.66 1.98 1 3 C0.01 3.495 0.01 3.495 -1 4 C-0.67 2.68 -0.34 1.36 0 0 Z " fill="#000000" transform="translate(276,68)"/>
<path d="M0 0 C1.65 0 3.3 0 5 0 C5 0.33 5 0.66 5 1 C3.35 1 1.7 1 0 1 C0 0.67 0 0.34 0 0 Z " fill="#000000" transform="translate(384,103)"/>
<path d="M0 0 C1.65 0 3.3 0 5 0 C5 0.33 5 0.66 5 1 C3.35 1 1.7 1 0 1 C0 0.67 0 0.34 0 0 Z " fill="#000000" transform="translate(348,103)"/>
<path d="M0 0 C1.65 0 3.3 0 5 0 C5 0.33 5 0.66 5 1 C3.35 1 1.7 1 0 1 C0 0.67 0 0.34 0 0 Z " fill="#000000" transform="translate(293,103)"/>
<path d="M0 0 C1.65 0 3.3 0 5 0 C5 0.33 5 0.66 5 1 C3.35 1 1.7 1 0 1 C0 0.67 0 0.34 0 0 Z " fill="#000000" transform="translate(473,91)"/>
<path d="M0 0 C0.33 1.32 0.66 2.64 1 4 C0.34 3.67 -0.32 3.34 -1 3 C-0.67 2.01 -0.34 1.02 0 0 Z " fill="#000000" transform="translate(174,87)"/>
<path d="M0 0 C0.33 0.66 0.66 1.32 1 2 C0.34 2.66 -0.32 3.32 -1 4 C-0.67 2.68 -0.34 1.36 0 0 Z " fill="#000000" transform="translate(276,87)"/>
<path d="M0 0 C0.33 0 0.66 0 1 0 C1 1.65 1 3.3 1 5 C0.67 5 0.34 5 0 5 C0 3.35 0 1.7 0 0 Z " fill="#142CFD" transform="translate(91,81)"/>
<path d="M0 0 C0.33 0 0.66 0 1 0 C1 1.65 1 3.3 1 5 C0.67 5 0.34 5 0 5 C0 3.35 0 1.7 0 0 Z " fill="#142EFD" transform="translate(91,75)"/>
<path d="M0 0 C0.33 0 0.66 0 1 0 C1 1.65 1 3.3 1 5 C0.67 5 0.34 5 0 5 C0 3.35 0 1.7 0 0 Z " fill="#000000" transform="translate(497,76)"/>
<path d="M0 0 C0.66 0.33 1.32 0.66 2 1 C1.01 1.66 0.02 2.32 -1 3 C-0.67 2.01 -0.34 1.02 0 0 Z " fill="#000000" transform="translate(469,67)"/>
<path d="M0 0 C1.65 0 3.3 0 5 0 C5 0.33 5 0.66 5 1 C3.35 1 1.7 1 0 1 C0 0.67 0 0.34 0 0 Z " fill="#000000" transform="translate(426,54)"/>
<path d="M0 0 C0 3 0 3 0 3 Z " fill="#000000" transform="translate(397,98)"/>
<path d="M0 0 C0.66 0.66 1.32 1.32 2 2 C1.01 2.495 1.01 2.495 0 3 C0 2.01 0 1.02 0 0 Z " fill="#000000" transform="translate(338,98)"/>
<path d="M0 0 C0 3 0 3 0 3 Z " fill="#000000" transform="translate(307,98)"/>
<path d="M0 0 C4 1 4 1 4 1 Z " fill="#000000" transform="translate(387,91)"/>
<path d="M0 0 C4 1 4 1 4 1 Z " fill="#000000" transform="translate(253,91)"/>
<path d="M0 0 C4 1 4 1 4 1 Z " fill="#000000" transform="translate(209,91)"/>
<path d="M0 0 C0.99 0.495 0.99 0.495 2 1 C1.67 1.66 1.34 2.32 1 3 C0.67 2.01 0.34 1.02 0 0 Z " fill="#000000" transform="translate(186,79)"/>
<path d="M0 0 C1 4 1 4 1 4 Z " fill="#000000" transform="translate(290,72)"/>
<path d="M0 0 C1 4 1 4 1 4 Z " fill="#000000" transform="translate(188,71)"/>
<path d="M0 0 C4 1 4 1 4 1 Z " fill="#000000" transform="translate(168,72)"/>
<path d="M0 0 C4 1 4 1 4 1 Z " fill="#142EFD" transform="translate(108,57)"/>
<path d="M0 0 C4 1 4 1 4 1 Z " fill="#000000" transform="translate(478,54)"/>
<path d="M0 0 C4 1 4 1 4 1 Z " fill="#000000" transform="translate(436,54)"/>
<path d="M0 0 C4 1 4 1 4 1 Z " fill="#000000" transform="translate(395,54)"/>
<path d="M0 0 C4 1 4 1 4 1 Z " fill="#000000" transform="translate(385,54)"/>
<path d="M0 0 C4 1 4 1 4 1 Z " fill="#000000" transform="translate(257,54)"/>
<path d="M0 0 C4 1 4 1 4 1 Z " fill="#000000" transform="translate(248,54)"/>
<path d="M0 0 C4 1 4 1 4 1 Z " fill="#000000" transform="translate(213,54)"/>
<path d="M0 0 C4 1 4 1 4 1 Z " fill="#000000" transform="translate(204,54)"/>
<path d="M0 0 C4 1 4 1 4 1 Z " fill="#000000" transform="translate(171,54)"/>
<path d="M0 0 C4 1 4 1 4 1 Z " fill="#000000" transform="translate(162,54)"/>
<path d="M0 0 C3 1 3 1 3 1 Z " fill="#000000" transform="translate(481,102)"/>
<path d="M0 0 C3 1 3 1 3 1 Z " fill="#000000" transform="translate(467,102)"/>
<path d="M0 0 C3 1 3 1 3 1 Z " fill="#000000" transform="translate(439,102)"/>
<path d="M0 0 C3 1 3 1 3 1 Z " fill="#000000" transform="translate(424,102)"/>
<path d="M0 0 C3 1 3 1 3 1 Z " fill="#000000" transform="translate(299,102)"/>
<path d="M0 0 C3 1 3 1 3 1 Z " fill="#000000" transform="translate(260,102)"/>
<path d="M0 0 C3 1 3 1 3 1 Z " fill="#000000" transform="translate(246,102)"/>
<path d="M0 0 C3 1 3 1 3 1 Z " fill="#000000" transform="translate(216,102)"/>
<path d="M0 0 C3 1 3 1 3 1 Z " fill="#000000" transform="translate(174,102)"/>
<path d="M0 0 C3 1 3 1 3 1 Z " fill="#000000" transform="translate(160,102)"/>
<path d="M0 0 C3 1 3 1 3 1 Z " fill="#142CFD" transform="translate(106,102)"/>
<path d="" fill="#000000" transform="translate(0,0)"/>
<path d="M0 0 C0.66 0.66 1.32 1.32 2 2 C1.34 2 0.68 2 0 2 C0 1.34 0 0.68 0 0 Z " fill="#000000" transform="translate(427,89)"/>
<path d="M0 0 C0.66 0.66 1.32 1.32 2 2 C1.34 2 0.68 2 0 2 C0 1.34 0 0.68 0 0 Z " fill="#000000" transform="translate(384,89)"/>
<path d="M0 0 C0.66 0.66 1.32 1.32 2 2 C1.34 2 0.68 2 0 2 C0 1.34 0 0.68 0 0 Z " fill="#000000" transform="translate(204,88)"/>
<path d="" fill="#000000" transform="translate(0,0)"/>
<path d="" fill="#000000" transform="translate(0,0)"/>
<path d="M0 0 C0.33 0.66 0.66 1.32 1 2 C0.34 1.67 -0.32 1.34 -1 1 C-0.67 0.67 -0.34 0.34 0 0 Z " fill="#000000" transform="translate(261,88)"/>
<path d="" fill="#000000" transform="translate(0,0)"/>
<path d="" fill="#112AFD" transform="translate(0,0)"/>
<path d="M0 0 C3 1 3 1 3 1 Z " fill="#000000" transform="translate(433,85)"/>
<path d="M0 0 C3 1 3 1 3 1 Z " fill="#000000" transform="translate(168,85)"/>
<path d="M0 0 C3 1 3 1 3 1 Z " fill="#000000" transform="translate(428,84)"/>
<path d="M0 0 C3 1 3 1 3 1 Z " fill="#000000" transform="translate(164,84)"/>
<path d="" fill="#000000" transform="translate(0,0)"/>
<path d="" fill="#000000" transform="translate(0,0)"/>
<path d="" fill="#000000" transform="translate(0,0)"/>
<path d="M0 0 C3 1 3 1 3 1 Z " fill="#000000" transform="translate(160,83)"/>
<path d="M0 0 C0.66 0 1.32 0 2 0 C1.67 0.66 1.34 1.32 1 2 C0.67 1.34 0.34 0.68 0 0 Z " fill="#132BFE" transform="translate(118,75)"/>
<path d="M0 0 C0.99 0.495 0.99 0.495 2 1 C1.01 1.495 1.01 1.495 0 2 C0 1.34 0 0.68 0 0 Z " fill="#132AFD" transform="translate(110,75)"/>
<path d="M0 0 C3 1 3 1 3 1 Z " fill="#000000" transform="translate(441,74)"/>
<path d="" fill="#000000" transform="translate(0,0)"/>
<path d="M0 0 C3 1 3 1 3 1 Z " fill="#000000" transform="translate(437,73)"/>
<path d="" fill="#000000" transform="translate(0,0)"/>
<path d="M0 0 C3 1 3 1 3 1 Z " fill="#000000" transform="translate(173,73)"/>
<path d="" fill="#132DFE" transform="translate(0,0)"/>
<path d="M0 0 C3 1 3 1 3 1 Z " fill="#000000" transform="translate(433,72)"/>
<path d="" fill="#000000" transform="translate(0,0)"/>
<path d="M0 0 C3 1 3 1 3 1 Z " fill="#000000" transform="translate(429,71)"/>
<path d="" fill="#000000" transform="translate(0,0)"/>
<path d="" fill="#000000" transform="translate(0,0)"/>
<path d="" fill="#000000" transform="translate(0,0)"/>
<path d="M0 0 C3 1 3 1 3 1 Z " fill="#000000" transform="translate(167,65)"/>
<path d="M0 0 C3 1 3 1 3 1 Z " fill="#152DFD" transform="translate(118,57)"/>
<path d="M0 0 C3 1 3 1 3 1 Z " fill="#000000" transform="translate(469,54)"/>
<path d="M0 0 C2 1 2 1 2 1 Z " fill="#000000" transform="translate(390,102)"/>
<path d="M0 0 C2 1 2 1 2 1 Z " fill="#000000" transform="translate(380,102)"/>
<path d="M0 0 C2 1 2 1 2 1 Z " fill="#000000" transform="translate(355,102)"/>
<path d="M0 0 C2 1 2 1 2 1 Z " fill="#000000" transform="translate(344,102)"/>
<path d="M0 0 C2 1 2 1 2 1 Z " fill="#000000" transform="translate(289,102)"/>
<path d="M0 0 C2 1 2 1 2 1 Z " fill="#000000" transform="translate(203,102)"/>
<path d="M0 0 C2 1 2 1 2 1 Z " fill="#152CFC" transform="translate(122,102)"/>
<path d="M0 0 C2 1 2 1 2 1 Z " fill="#000000" transform="translate(484,101)"/>
<path d="M0 0 C2 1 2 1 2 1 Z " fill="#000000" transform="translate(465,101)"/>
<path d="M0 0 C2 1 2 1 2 1 Z " fill="#000000" transform="translate(442,101)"/>
<path d="M0 0 C2 1 2 1 2 1 Z " fill="#000000" transform="translate(422,101)"/>
<path d="M0 0 C2 1 2 1 2 1 Z " fill="#000000" transform="translate(342,101)"/>
<path d="M0 0 C2 1 2 1 2 1 Z " fill="#000000" transform="translate(302,101)"/>
<path d="M0 0 C2 1 2 1 2 1 Z " fill="#000000" transform="translate(263,101)"/>
<path d="M0 0 C2 1 2 1 2 1 Z " fill="#000000" transform="translate(244,101)"/>
<path d="M0 0 C2 1 2 1 2 1 Z " fill="#000000" transform="translate(220,101)"/>
<path d="M0 0 C2 1 2 1 2 1 Z " fill="#000000" transform="translate(200,101)"/>
<path d="M0 0 C2 1 2 1 2 1 Z " fill="#000000" transform="translate(178,101)"/>
<path d="M0 0 C2 1 2 1 2 1 Z " fill="#152CFD" transform="translate(124,101)"/>
<path d="M0 0 C2 1 2 1 2 1 Z " fill="#152BFE" transform="translate(104,101)"/>
<path d="M0 0 C2 1 2 1 2 1 Z " fill="#000000" transform="translate(486,100)"/>
<path d="M0 0 C2 1 2 1 2 1 Z " fill="#000000" transform="translate(444,100)"/>
<path d="M0 0 C2 1 2 1 2 1 Z " fill="#000000" transform="translate(420,100)"/>
<path d="M0 0 C2 1 2 1 2 1 Z " fill="#000000" transform="translate(340,100)"/>
<path d="M0 0 C2 1 2 1 2 1 Z " fill="#000000" transform="translate(242,100)"/>
<path d="M0 0 C2 1 2 1 2 1 Z " fill="#000000" transform="translate(267,99)"/>
<path d="M0 0 C2 1 2 1 2 1 Z " fill="#000000" transform="translate(223,99)"/>
<path d="M0 0 C2 1 2 1 2 1 Z " fill="#000000" transform="translate(154,99)"/>
<path d="M0 0 C2 1 2 1 2 1 Z " fill="#000000" transform="translate(489,98)"/>
<path d="M0 0 C2 1 2 1 2 1 Z " fill="#000000" transform="translate(447,98)"/>
<path d="" fill="#000000" transform="translate(0,0)"/>
<path d="" fill="#000000" transform="translate(0,0)"/>
<path d="" fill="#000000" transform="translate(0,0)"/>
<path d="" fill="#000000" transform="translate(0,0)"/>
<path d="" fill="#000000" transform="translate(0,0)"/>
<path d="" fill="#000000" transform="translate(0,0)"/>
<path d="" fill="#000000" transform="translate(0,0)"/>
<path d="" fill="#000000" transform="translate(0,0)"/>
<path d="" fill="#000000" transform="translate(0,0)"/>
<path d="" fill="#000000" transform="translate(0,0)"/>
<path d="" fill="#000000" transform="translate(0,0)"/>
<path d="" fill="#162CFB" transform="translate(0,0)"/>
<path d="" fill="#000000" transform="translate(0,0)"/>
<path d="" fill="#000000" transform="translate(0,0)"/>
<path d="" fill="#000000" transform="translate(0,0)"/>
<path d="M0 0 C2 1 2 1 2 1 Z " fill="#000000" transform="translate(479,90)"/>
<path d="M0 0 C2 1 2 1 2 1 Z " fill="#000000" transform="translate(470,90)"/>
<path d="M0 0 C2 1 2 1 2 1 Z " fill="#000000" transform="translate(393,90)"/>
<path d="M0 0 C2 1 2 1 2 1 Z " fill="#000000" transform="translate(258,90)"/>
<path d="M0 0 C2 1 2 1 2 1 Z " fill="#000000" transform="translate(250,90)"/>
<path d="" fill="#000000" transform="translate(0,0)"/>
<path d="M0 0 C2 1 2 1 2 1 Z " fill="#000000" transform="translate(215,90)"/>
<path d="M0 0 C2 1 2 1 2 1 Z " fill="#000000" transform="translate(206,90)"/>
<path d="" fill="#142BFD" transform="translate(0,0)"/>
<path d="" fill="#162CFE" transform="translate(0,0)"/>
<path d="M0 0 C2 1 2 1 2 1 Z " fill="#000000" transform="translate(351,89)"/>
<path d="M0 0 C2 1 2 1 2 1 Z " fill="#000000" transform="translate(342,89)"/>
<path d="M0 0 C2 1 2 1 2 1 Z " fill="#000000" transform="translate(302,89)"/>
<path d="M0 0 C2 1 2 1 2 1 Z " fill="#000000" transform="translate(293,89)"/>
<path d="" fill="#000000" transform="translate(0,0)"/>
<path d="" fill="#000000" transform="translate(0,0)"/>
<path d="" fill="#000000" transform="translate(0,0)"/>
<path d="" fill="#000000" transform="translate(0,0)"/>
<path d="" fill="#000000" transform="translate(0,0)"/>
<path d="" fill="#000000" transform="translate(0,0)"/>
<path d="" fill="#172EFB" transform="translate(0,0)"/>
<path d="" fill="#000000" transform="translate(0,0)"/>
<path d="" fill="#000000" transform="translate(0,0)"/>
<path d="" fill="#000000" transform="translate(0,0)"/>
<path d="M0 0 C2 1 2 1 2 1 Z " fill="#000000" transform="translate(437,86)"/>
<path d="" fill="#000000" transform="translate(0,0)"/>
<path d="M0 0 C2 1 2 1 2 1 Z " fill="#000000" transform="translate(172,86)"/>
<path d="M0 0 C2 1 2 1 2 1 Z " fill="#000000" transform="translate(385,84)"/>
<path d="" fill="#000000" transform="translate(0,0)"/>
<path d="M0 0 C2 1 2 1 2 1 Z " fill="#000000" transform="translate(425,83)"/>
<path d="M0 0 C2 1 2 1 2 1 Z " fill="#000000" transform="translate(422,82)"/>
<path d="M0 0 C2 1 2 1 2 1 Z " fill="#000000" transform="translate(158,82)"/>
<path d="M0 0 C2 1 2 1 2 1 Z " fill="#000000" transform="translate(420,81)"/>
<path d="" fill="#000000" transform="translate(0,0)"/>
<path d="" fill="#000000" transform="translate(0,0)"/>
<path d="M0 0 C2 1 2 1 2 1 Z " fill="#000000" transform="translate(446,76)"/>
<path d="M0 0 C2 1 2 1 2 1 Z " fill="#000000" transform="translate(444,75)"/>
<path d="M0 0 C2 1 2 1 2 1 Z " fill="#000000" transform="translate(377,75)"/>
<path d="M0 0 C2 1 2 1 2 1 Z " fill="#000000" transform="translate(379,74)"/>
<path d="M0 0 C2 1 2 1 2 1 Z " fill="#000000" transform="translate(177,74)"/>
<path d="" fill="#000000" transform="translate(0,0)"/>
<path d="" fill="#162DFD" transform="translate(0,0)"/>
<path d="" fill="#000000" transform="translate(0,0)"/>
<path d="" fill="#000000" transform="translate(0,0)"/>
<path d="" fill="#000000" transform="translate(0,0)"/>
<path d="" fill="#000000" transform="translate(0,0)"/>
<path d="M0 0 C2 1 2 1 2 1 Z " fill="#000000" transform="translate(165,71)"/>
<path d="" fill="#152DFD" transform="translate(0,0)"/>
<path d="" fill="#000000" transform="translate(0,0)"/>
<path d="" fill="#000000" transform="translate(0,0)"/>
<path d="" fill="#000000" transform="translate(0,0)"/>
<path d="" fill="#000000" transform="translate(0,0)"/>
<path d="" fill="#000000" transform="translate(0,0)"/>
<path d="" fill="#000000" transform="translate(0,0)"/>
<path d="" fill="#192EFD" transform="translate(0,0)"/>
<path d="" fill="#000000" transform="translate(0,0)"/>
<path d="" fill="#000000" transform="translate(0,0)"/>
<path d="" fill="#000000" transform="translate(0,0)"/>
<path d="" fill="#000000" transform="translate(0,0)"/>
<path d="M0 0 C2 1 2 1 2 1 Z " fill="#000000" transform="translate(479,67)"/>
<path d="" fill="#000000" transform="translate(0,0)"/>
<path d="M0 0 C2 1 2 1 2 1 Z " fill="#000000" transform="translate(350,67)"/>
<path d="M0 0 C2 1 2 1 2 1 Z " fill="#000000" transform="translate(343,67)"/>
<path d="M0 0 C2 1 2 1 2 1 Z " fill="#000000" transform="translate(301,67)"/>
<path d="M0 0 C2 1 2 1 2 1 Z " fill="#000000" transform="translate(294,67)"/>
<path d="" fill="#000000" transform="translate(0,0)"/>
<path d="M0 0 C2 1 2 1 2 1 Z " fill="#000000" transform="translate(258,67)"/>
<path d="" fill="#000000" transform="translate(0,0)"/>
<path d="" fill="#000000" transform="translate(0,0)"/>
<path d="" fill="#000000" transform="translate(0,0)"/>
<path d="" fill="#000000" transform="translate(0,0)"/>
<path d="M0 0 C2 1 2 1 2 1 Z " fill="#000000" transform="translate(436,66)"/>
<path d="M0 0 C2 1 2 1 2 1 Z " fill="#000000" transform="translate(428,66)"/>
<path d="" fill="#000000" transform="translate(0,0)"/>
<path d="" fill="#000000" transform="translate(0,0)"/>
<path d="M0 0 C2 1 2 1 2 1 Z " fill="#000000" transform="translate(171,66)"/>
<path d="" fill="#000000" transform="translate(0,0)"/>
<path d="" fill="#000000" transform="translate(0,0)"/>
<path d="M0 0 C2 1 2 1 2 1 Z " fill="#000000" transform="translate(432,65)"/>
<path d="" fill="#000000" transform="translate(0,0)"/>
<path d="" fill="#000000" transform="translate(0,0)"/>
<path d="" fill="#000000" transform="translate(0,0)"/>
<path d="" fill="#000000" transform="translate(0,0)"/>
<path d="" fill="#000000" transform="translate(0,0)"/>
<path d="" fill="#000000" transform="translate(0,0)"/>
<path d="" fill="#000000" transform="translate(0,0)"/>
<path d="" fill="#000000" transform="translate(0,0)"/>
<path d="" fill="#000000" transform="translate(0,0)"/>
<path d="M0 0 C2 1 2 1 2 1 Z " fill="#152BFC" transform="translate(126,60)"/>
<path d="M0 0 C2 1 2 1 2 1 Z " fill="#000000" transform="translate(195,59)"/>
<path d="M0 0 C2 1 2 1 2 1 Z " fill="#142EFE" transform="translate(124,59)"/>
<path d="M0 0 C2 1 2 1 2 1 Z " fill="#000000" transform="translate(240,58)"/>
<path d="M0 0 C2 1 2 1 2 1 Z " fill="#152DFD" transform="translate(122,58)"/>
<path d="M0 0 C2 1 2 1 2 1 Z " fill="#152FFE" transform="translate(106,58)"/>
<path d="M0 0 C2 1 2 1 2 1 Z " fill="#000000" transform="translate(486,57)"/>
<path d="M0 0 C2 1 2 1 2 1 Z " fill="#000000" transform="translate(462,57)"/>
<path d="M0 0 C2 1 2 1 2 1 Z " fill="#000000" transform="translate(360,57)"/>
<path d="M0 0 C2 1 2 1 2 1 Z " fill="#000000" transform="translate(284,57)"/>
<path d="M0 0 C2 1 2 1 2 1 Z " fill="#000000" transform="translate(155,57)"/>
<path d="M0 0 C2 1 2 1 2 1 Z " fill="#000000" transform="translate(464,56)"/>
<path d="M0 0 C2 1 2 1 2 1 Z " fill="#000000" transform="translate(421,56)"/>
<path d="M0 0 C2 1 2 1 2 1 Z " fill="#000000" transform="translate(380,56)"/>
<path d="M0 0 C2 1 2 1 2 1 Z " fill="#000000" transform="translate(341,56)"/>
<path d="M0 0 C2 1 2 1 2 1 Z " fill="#000000" transform="translate(303,56)"/>
<path d="M0 0 C2 1 2 1 2 1 Z " fill="#000000" transform="translate(243,56)"/>
<path d="M0 0 C2 1 2 1 2 1 Z " fill="#000000" transform="translate(220,56)"/>
<path d="M0 0 C2 1 2 1 2 1 Z " fill="#000000" transform="translate(199,56)"/>
<path d="M0 0 C2 1 2 1 2 1 Z " fill="#000000" transform="translate(178,56)"/>
<path d="M0 0 C2 1 2 1 2 1 Z " fill="#000000" transform="translate(157,56)"/>
<path d="M0 0 C2 1 2 1 2 1 Z " fill="#000000" transform="translate(482,55)"/>
<path d="M0 0 C2 1 2 1 2 1 Z " fill="#000000" transform="translate(466,55)"/>
<path d="M0 0 C2 1 2 1 2 1 Z " fill="#000000" transform="translate(423,55)"/>
<path d="M0 0 C2 1 2 1 2 1 Z " fill="#000000" transform="translate(399,55)"/>
<path d="M0 0 C2 1 2 1 2 1 Z " fill="#000000" transform="translate(382,55)"/>
<path d="M0 0 C2 1 2 1 2 1 Z " fill="#000000" transform="translate(356,55)"/>
<path d="M0 0 C2 1 2 1 2 1 Z " fill="#000000" transform="translate(343,55)"/>
<path d="M0 0 C2 1 2 1 2 1 Z " fill="#000000" transform="translate(301,55)"/>
<path d="M0 0 C2 1 2 1 2 1 Z " fill="#000000" transform="translate(288,55)"/>
<path d="M0 0 C2 1 2 1 2 1 Z " fill="#000000" transform="translate(261,55)"/>
<path d="M0 0 C2 1 2 1 2 1 Z " fill="#000000" transform="translate(245,55)"/>
<path d="M0 0 C2 1 2 1 2 1 Z " fill="#000000" transform="translate(218,55)"/>
<path d="M0 0 C2 1 2 1 2 1 Z " fill="#000000" transform="translate(201,55)"/>
<path d="M0 0 C2 1 2 1 2 1 Z " fill="#000000" transform="translate(176,55)"/>
<path d="M0 0 C2 1 2 1 2 1 Z " fill="#000000" transform="translate(159,55)"/>
<path d="" fill="#000000" transform="translate(0,0)"/>
<path d="" fill="#000000" transform="translate(0,0)"/>
<path d="" fill="#000000" transform="translate(0,0)"/>
<path d="" fill="#000000" transform="translate(0,0)"/>
<path d="" fill="#000000" transform="translate(0,0)"/>
<path d="" fill="#000000" transform="translate(0,0)"/>
<path d="" fill="#000000" transform="translate(0,0)"/>
<path d="" fill="#000000" transform="translate(0,0)"/>
<path d="" fill="#000000" transform="translate(0,0)"/>
<path d="" fill="#000000" transform="translate(0,0)"/>
<path d="" fill="#000000" transform="translate(0,0)"/>
<path d="" fill="#000000" transform="translate(0,0)"/>
<path d="" fill="#000000" transform="translate(0,0)"/>
<path d="" fill="#000000" transform="translate(0,0)"/>
<path d="" fill="#000000" transform="translate(0,0)"/>
<path d="" fill="#000000" transform="translate(0,0)"/>
<path d="" fill="#000000" transform="translate(0,0)"/>
<path d="" fill="#000000" transform="translate(0,0)"/>
<path d="" fill="#000000" transform="translate(0,0)"/>
<path d="" fill="#142BFD" transform="translate(0,0)"/>
<path d="" fill="#152CFD" transform="translate(0,0)"/>
<path d="" fill="#000000" transform="translate(0,0)"/>
<path d="" fill="#000000" transform="translate(0,0)"/>
<path d="" fill="#000000" transform="translate(0,0)"/>
<path d="" fill="#000000" transform="translate(0,0)"/>
<path d="" fill="#000000" transform="translate(0,0)"/>
<path d="" fill="#000000" transform="translate(0,0)"/>
<path d="" fill="#000000" transform="translate(0,0)"/>
<path d="" fill="#000000" transform="translate(0,0)"/>
<path d="" fill="#000000" transform="translate(0,0)"/>
<path d="" fill="#000000" transform="translate(0,0)"/>
<path d="" fill="#142CFC" transform="translate(0,0)"/>
<path d="" fill="#162BFC" transform="translate(0,0)"/>
<path d="" fill="#000000" transform="translate(0,0)"/>
<path d="" fill="#000000" transform="translate(0,0)"/>
<path d="" fill="#000000" transform="translate(0,0)"/>
<path d="" fill="#000000" transform="translate(0,0)"/>
<path d="" fill="#000000" transform="translate(0,0)"/>
<path d="" fill="#000000" transform="translate(0,0)"/>
<path d="" fill="#000000" transform="translate(0,0)"/>
<path d="" fill="#000000" transform="translate(0,0)"/>
<path d="" fill="#000000" transform="translate(0,0)"/>
<path d="" fill="#000000" transform="translate(0,0)"/>
<path d="" fill="#000000" transform="translate(0,0)"/>
<path d="" fill="#152BFC" transform="translate(0,0)"/>
<path d="" fill="#162CFC" transform="translate(0,0)"/>
<path d="" fill="#000000" transform="translate(0,0)"/>
<path d="" fill="#000000" transform="translate(0,0)"/>
<path d="" fill="#000000" transform="translate(0,0)"/>
<path d="" fill="#000000" transform="translate(0,0)"/>
<path d="" fill="#000000" transform="translate(0,0)"/>
<path d="" fill="#000000" transform="translate(0,0)"/>
<path d="" fill="#000000" transform="translate(0,0)"/>
<path d="" fill="#000000" transform="translate(0,0)"/>
<path d="" fill="#000000" transform="translate(0,0)"/>
<path d="" fill="#000000" transform="translate(0,0)"/>
<path d="" fill="#000000" transform="translate(0,0)"/>
<path d="" fill="#000000" transform="translate(0,0)"/>
<path d="" fill="#000000" transform="translate(0,0)"/>
<path d="" fill="#182DFE" transform="translate(0,0)"/>
<path d="" fill="#162EFE" transform="translate(0,0)"/>
<path d="" fill="#000000" transform="translate(0,0)"/>
<path d="" fill="#000000" transform="translate(0,0)"/>
<path d="" fill="#000000" transform="translate(0,0)"/>
<path d="" fill="#000000" transform="translate(0,0)"/>
<path d="" fill="#000000" transform="translate(0,0)"/>
<path d="" fill="#000000" transform="translate(0,0)"/>
<path d="" fill="#000000" transform="translate(0,0)"/>
<path d="" fill="#000000" transform="translate(0,0)"/>
<path d="" fill="#000000" transform="translate(0,0)"/>
<path d="" fill="#000000" transform="translate(0,0)"/>
<path d="" fill="#000000" transform="translate(0,0)"/>
<path d="" fill="#000000" transform="translate(0,0)"/>
<path d="" fill="#152EFF" transform="translate(0,0)"/>
<path d="" fill="#152FFF" transform="translate(0,0)"/>
<path d="" fill="#000000" transform="translate(0,0)"/>
<path d="" fill="#000000" transform="translate(0,0)"/>
<path d="" fill="#000000" transform="translate(0,0)"/>
<path d="" fill="#000000" transform="translate(0,0)"/>
<path d="" fill="#000000" transform="translate(0,0)"/>
<path d="" fill="#000000" transform="translate(0,0)"/>
<path d="" fill="#000000" transform="translate(0,0)"/>
<path d="" fill="#000000" transform="translate(0,0)"/>
<path d="" fill="#142DFF" transform="translate(0,0)"/>
<path d="" fill="#162EFF" transform="translate(0,0)"/>
<path d="" fill="#000000" transform="translate(0,0)"/>
<path d="" fill="#000000" transform="translate(0,0)"/>
<path d="" fill="#000000" transform="translate(0,0)"/>
<path d="" fill="#000000" transform="translate(0,0)"/>
<path d="" fill="#000000" transform="translate(0,0)"/>
<path d="" fill="#000000" transform="translate(0,0)"/>
<path d="" fill="#000000" transform="translate(0,0)"/>
<path d="" fill="#000000" transform="translate(0,0)"/>
<path d="" fill="#142BFC" transform="translate(0,0)"/>
<path d="" fill="#152CFD" transform="translate(0,0)"/>
<path d="" fill="#000000" transform="translate(0,0)"/>
<path d="" fill="#000000" transform="translate(0,0)"/>
<path d="" fill="#000000" transform="translate(0,0)"/>
<path d="" fill="#000000" transform="translate(0,0)"/>
<path d="" fill="#000000" transform="translate(0,0)"/>
<path d="" fill="#132AFB" transform="translate(0,0)"/>
<path d="" fill="#172DFB" transform="translate(0,0)"/>
<path d="" fill="#000000" transform="translate(0,0)"/>
<path d="" fill="#000000" transform="translate(0,0)"/>
<path d="" fill="#000000" transform="translate(0,0)"/>
<path d="" fill="#000000" transform="translate(0,0)"/>
<path d="" fill="#000000" transform="translate(0,0)"/>
<path d="" fill="#112BFE" transform="translate(0,0)"/>
<path d="" fill="#000000" transform="translate(0,0)"/>
<path d="" fill="#000000" transform="translate(0,0)"/>
<path d="" fill="#000000" transform="translate(0,0)"/>
<path d="" fill="#000000" transform="translate(0,0)"/>
<path d="" fill="#000000" transform="translate(0,0)"/>
<path d="" fill="#000000" transform="translate(0,0)"/>
<path d="" fill="#000000" transform="translate(0,0)"/>
<path d="" fill="#000000" transform="translate(0,0)"/>
<path d="" fill="#000000" transform="translate(0,0)"/>
<path d="" fill="#000000" transform="translate(0,0)"/>
<path d="" fill="#000000" transform="translate(0,0)"/>
<path d="" fill="#000000" transform="translate(0,0)"/>
<path d="" fill="#000000" transform="translate(0,0)"/>
<path d="" fill="#000000" transform="translate(0,0)"/>
<path d="" fill="#000000" transform="translate(0,0)"/>
<path d="" fill="#000000" transform="translate(0,0)"/>
<path d="" fill="#000000" transform="translate(0,0)"/>
<path d="" fill="#000000" transform="translate(0,0)"/>
<path d="" fill="#000000" transform="translate(0,0)"/>
<path d="" fill="#000000" transform="translate(0,0)"/>
<path d="" fill="#000000" transform="translate(0,0)"/>
<path d="" fill="#152BFE" transform="translate(0,0)"/>
<path d="" fill="#162DFF" transform="translate(0,0)"/>
<path d="" fill="#000000" transform="translate(0,0)"/>
<path d="" fill="#000000" transform="translate(0,0)"/>
<path d="" fill="#000000" transform="translate(0,0)"/>
<path d="" fill="#000000" transform="translate(0,0)"/>
<path d="" fill="#000000" transform="translate(0,0)"/>
<path d="" fill="#000000" transform="translate(0,0)"/>
<path d="" fill="#000000" transform="translate(0,0)"/>
<path d="" fill="#000000" transform="translate(0,0)"/>
<path d="" fill="#000000" transform="translate(0,0)"/>
<path d="" fill="#000000" transform="translate(0,0)"/>
<path d="" fill="#000000" transform="translate(0,0)"/>
<path d="" fill="#000000" transform="translate(0,0)"/>
<path d="" fill="#000000" transform="translate(0,0)"/>
<path d="" fill="#000000" transform="translate(0,0)"/>
<path d="" fill="#000000" transform="translate(0,0)"/>
<path d="" fill="#000000" transform="translate(0,0)"/>
<path d="" fill="#000000" transform="translate(0,0)"/>
<path d="" fill="#000000" transform="translate(0,0)"/>
<path d="" fill="#000000" transform="translate(0,0)"/>
<path d="" fill="#000000" transform="translate(0,0)"/>
<path d="" fill="#000000" transform="translate(0,0)"/>
<path d="" fill="#000000" transform="translate(0,0)"/>
<path d="" fill="#000000" transform="translate(0,0)"/>
<path d="" fill="#000000" transform="translate(0,0)"/>
<path d="" fill="#000000" transform="translate(0,0)"/>
<path d="" fill="#162EFC" transform="translate(0,0)"/>
<path d="" fill="#000000" transform="translate(0,0)"/>
<path d="" fill="#000000" transform="translate(0,0)"/>
<path d="" fill="#000000" transform="translate(0,0)"/>
<path d="" fill="#000000" transform="translate(0,0)"/>
<path d="" fill="#000000" transform="translate(0,0)"/>
<path d="" fill="#152DFE" transform="translate(0,0)"/>
<path d="" fill="#000000" transform="translate(0,0)"/>
<path d="" fill="#000000" transform="translate(0,0)"/>
<path d="" fill="#000000" transform="translate(0,0)"/>
<path d="" fill="#000000" transform="translate(0,0)"/>
<path d="" fill="#000000" transform="translate(0,0)"/>
<path d="" fill="#000000" transform="translate(0,0)"/>
<path d="" fill="#000000" transform="translate(0,0)"/>
<path d="" fill="#000000" transform="translate(0,0)"/>
<path d="" fill="#000000" transform="translate(0,0)"/>
<path d="" fill="#000000" transform="translate(0,0)"/>
<path d="" fill="#000000" transform="translate(0,0)"/>
<path d="" fill="#000000" transform="translate(0,0)"/>
<path d="" fill="#000000" transform="translate(0,0)"/>
<path d="" fill="#000000" transform="translate(0,0)"/>
<path d="" fill="#000000" transform="translate(0,0)"/>
<path d="" fill="#000000" transform="translate(0,0)"/>
<path d="" fill="#142CFC" transform="translate(0,0)"/>
<path d="" fill="#172EFD" transform="translate(0,0)"/>
<path d="" fill="#000000" transform="translate(0,0)"/>
<path d="" fill="#000000" transform="translate(0,0)"/>
<path d="" fill="#000000" transform="translate(0,0)"/>
<path d="" fill="#152DFE" transform="translate(0,0)"/>
<path d="" fill="#1931FF" transform="translate(0,0)"/>
<path d="" fill="#000000" transform="translate(0,0)"/>
<path d="" fill="#152DFF" transform="translate(0,0)"/>
<path d="" fill="#000000" transform="translate(0,0)"/>
<path d="" fill="#000000" transform="translate(0,0)"/>
<path d="" fill="#000000" transform="translate(0,0)"/>
<path d="" fill="#000000" transform="translate(0,0)"/>
<path d="" fill="#172DFF" transform="translate(0,0)"/>
<path d="" fill="#172EF9" transform="translate(0,0)"/>
<path d="" fill="#000000" transform="translate(0,0)"/>
<path d="" fill="#000000" transform="translate(0,0)"/>
<path d="" fill="#000000" transform="translate(0,0)"/>
<path d="" fill="#000000" transform="translate(0,0)"/>
<path d="" fill="#000000" transform="translate(0,0)"/>
<path d="" fill="#000000" transform="translate(0,0)"/>
<path d="" fill="#000000" transform="translate(0,0)"/>
<path d="" fill="#000000" transform="translate(0,0)"/>
<path d="" fill="#152DFF" transform="translate(0,0)"/>
<path d="" fill="#172FF7" transform="translate(0,0)"/>
<path d="" fill="#000000" transform="translate(0,0)"/>
<path d="" fill="#000000" transform="translate(0,0)"/>
<path d="" fill="#000000" transform="translate(0,0)"/>
<path d="" fill="#000000" transform="translate(0,0)"/>
<path d="" fill="#000000" transform="translate(0,0)"/>
<path d="" fill="#000000" transform="translate(0,0)"/>
<path d="" fill="#000000" transform="translate(0,0)"/>
<path d="" fill="#142DFF" transform="translate(0,0)"/>
<path d="" fill="#112BFF" transform="translate(0,0)"/>
<path d="" fill="#000000" transform="translate(0,0)"/>
<path d="" fill="#000000" transform="translate(0,0)"/>
<path d="" fill="#000000" transform="translate(0,0)"/>
<path d="" fill="#000000" transform="translate(0,0)"/>
<path d="" fill="#000000" transform="translate(0,0)"/>
<path d="" fill="#000000" transform="translate(0,0)"/>
<path d="" fill="#000000" transform="translate(0,0)"/>
<path d="" fill="#000000" transform="translate(0,0)"/>
<path d="" fill="#000000" transform="translate(0,0)"/>
<path d="" fill="#000000" transform="translate(0,0)"/>
<path d="" fill="#000000" transform="translate(0,0)"/>
<path d="" fill="#152DFE" transform="translate(0,0)"/>
<path d="" fill="#162EFF" transform="translate(0,0)"/>
<path d="" fill="#000000" transform="translate(0,0)"/>
<path d="" fill="#000000" transform="translate(0,0)"/>
<path d="" fill="#000000" transform="translate(0,0)"/>
<path d="" fill="#000000" transform="translate(0,0)"/>
<path d="" fill="#000000" transform="translate(0,0)"/>
<path d="" fill="#000000" transform="translate(0,0)"/>
<path d="" fill="#000000" transform="translate(0,0)"/>
<path d="" fill="#000000" transform="translate(0,0)"/>
<path d="" fill="#000000" transform="translate(0,0)"/>
<path d="" fill="#000000" transform="translate(0,0)"/>
<path d="" fill="#000000" transform="translate(0,0)"/>
<path d="" fill="#000000" transform="translate(0,0)"/>
<path d="" fill="#000000" transform="translate(0,0)"/>
<path d="" fill="#000000" transform="translate(0,0)"/>
<path d="" fill="#152CFC" transform="translate(0,0)"/>
<path d="" fill="#000000" transform="translate(0,0)"/>
<path d="" fill="#000000" transform="translate(0,0)"/>
<path d="" fill="#000000" transform="translate(0,0)"/>
<path d="" fill="#000000" transform="translate(0,0)"/>
<path d="" fill="#000000" transform="translate(0,0)"/>
<path d="" fill="#000000" transform="translate(0,0)"/>
<path d="" fill="#000000" transform="translate(0,0)"/>
<path d="" fill="#000000" transform="translate(0,0)"/>
<path d="" fill="#000000" transform="translate(0,0)"/>
<path d="" fill="#000000" transform="translate(0,0)"/>
<path d="" fill="#000000" transform="translate(0,0)"/>
<path d="" fill="#000000" transform="translate(0,0)"/>
<path d="" fill="#000000" transform="translate(0,0)"/>
<path d="" fill="#162DFE" transform="translate(0,0)"/>
<path d="" fill="#000000" transform="translate(0,0)"/>
<path d="" fill="#000000" transform="translate(0,0)"/>
<path d="" fill="#000000" transform="translate(0,0)"/>
<path d="" fill="#000000" transform="translate(0,0)"/>
<path d="" fill="#000000" transform="translate(0,0)"/>
<path d="" fill="#000000" transform="translate(0,0)"/>
<path d="" fill="#000000" transform="translate(0,0)"/>
<path d="" fill="#000000" transform="translate(0,0)"/>
<path d="" fill="#000000" transform="translate(0,0)"/>
<path d="" fill="#000000" transform="translate(0,0)"/>
<path d="" fill="#000000" transform="translate(0,0)"/>
<path d="" fill="#000000" transform="translate(0,0)"/>
<path d="" fill="#000000" transform="translate(0,0)"/>
<path d="" fill="#000000" transform="translate(0,0)"/>
<path d="" fill="#000000" transform="translate(0,0)"/>
<path d="" fill="#000000" transform="translate(0,0)"/>
<path d="" fill="#000000" transform="translate(0,0)"/>
<path d="" fill="#000000" transform="translate(0,0)"/>
<path d="" fill="#000000" transform="translate(0,0)"/>
<path d="" fill="#000000" transform="translate(0,0)"/>
<path d="" fill="#000000" transform="translate(0,0)"/>
<path d="" fill="#000000" transform="translate(0,0)"/>
<path d="" fill="#000000" transform="translate(0,0)"/>
<path d="" fill="#000000" transform="translate(0,0)"/>
<path d="" fill="#000000" transform="translate(0,0)"/>
<path d="" fill="#000000" transform="translate(0,0)"/>
<path d="" fill="#000000" transform="translate(0,0)"/>
<path d="" fill="#000000" transform="translate(0,0)"/>
<path d="" fill="#000000" transform="translate(0,0)"/>
<path d="" fill="#000000" transform="translate(0,0)"/>
<path d="" fill="#000000" transform="translate(0,0)"/>
<path d="" fill="#000000" transform="translate(0,0)"/>
</svg>
