<?xml version="1.0" encoding="utf-8" ?><svg xmlns="http://www.w3.org/2000/svg" xmlns:xlink="http://www.w3.org/1999/xlink" width="1024" height="338" viewBox="0 0 1024 338"><clipPath id="cl_3"><rect width="1024" height="338"/></clipPath><g clip-path="url(#cl_3)"><path fill="#FEFEFE" transform="scale(0.330323 0.330078)" d="M0 0L3101 0L3101 1024L0 1024L0 0Z"/><path transform="scale(0.330323 0.330078)" d="M1588.27 302.782L1671.3 302.807L1671.51 712.141L1589.35 712.181C1589.33 694.203 1589.42 676.225 1589.63 658.248C1557.77 714.124 1513.89 725.037 1453.39 711.284C1428.24 702.39 1405.27 681.672 1391.91 658.673C1363.85 609.801 1364.14 549.728 1377.15 496.43C1393.41 429.792 1456.86 389.235 1523.81 407.323C1556.84 416.244 1571.66 434.204 1588.26 462.945C1587.68 409.96 1588.24 355.833 1588.27 302.782Z"/><path fill="#FEFEFE" transform="scale(0.330323 0.330078)" d="M1513.04 470.212C1589.75 462.087 1604.37 569.176 1574.49 619.288C1563.63 637.507 1551.09 644.872 1531.33 650.021C1516.85 650.209 1501.43 650.125 1488.83 641.662C1445.98 612.889 1446.08 537.788 1470.06 497.315C1479.77 480.941 1495.7 473.899 1513.04 470.212Z"/><path transform="scale(0.330323 0.330078)" d="M1716.97 302.514C1743.97 303.31 1771.87 302.97 1798.97 302.934C1799.55 356.624 1799.53 410.319 1798.88 464.009C1800.44 461.198 1802.09 458.442 1803.83 455.745C1840.77 398.064 1905.27 386.988 1962.05 423.055C1989.06 440.395 2008.03 476.358 2013.71 507.291C2024.99 568.629 2019.94 623.01 1985.72 675.822C1933.06 737.933 1837.84 731.249 1798.59 657.205L1798.61 712.212L1716.87 712.267L1716.97 302.514Z"/><path fill="#FEFEFE" transform="scale(0.330323 0.330078)" d="M1859.29 470.206C1934.83 464.795 1947.7 562.109 1922.85 614.471C1914.02 633.07 1896.01 644.442 1876.78 650.153C1861.25 650.257 1846.48 648.91 1833.19 640.036C1792.33 612.742 1790.32 537.784 1814.85 499.452C1825.56 482.7 1840.57 474.225 1859.29 470.206Z"/><path fill="#1532FA" transform="scale(0.330323 0.330078)" d="M185.056 403.537C274.198 396.121 352.448 462.433 359.756 551.584C367.064 640.735 300.657 718.904 211.497 726.104C122.49 733.291 44.4834 667.023 37.1881 578.025C29.8929 489.027 96.0665 410.94 185.056 403.537Z"/><path fill="#FEFEFE" transform="scale(0.330323 0.330078)" d="M189.374 503.482C222.214 498.209 253.112 520.554 258.39 553.393C263.668 586.232 241.328 617.134 208.49 622.417C175.644 627.701 144.735 605.355 139.456 572.509C134.177 539.663 156.527 508.757 189.374 503.482Z"/><path transform="scale(0.330323 0.330078)" d="M2170.56 402.412C2173.04 401.991 2180.21 401.944 2182.94 401.894C2220.47 401.055 2260.29 409.794 2288.08 436.627C2324.03 471.353 2315.44 528.735 2315.3 574.157C2315.15 620.135 2315.24 666.113 2315.57 712.09L2234.92 712.216L2234.84 663.848C2227.52 675.2 2220.9 683.419 2210.32 692.083C2187.05 711.262 2157.03 720.246 2127.05 717.003C2096.31 713.778 2073.06 699.427 2053.88 675.733C2044.37 663.392 2039.43 642.515 2038.97 627.288C2035.94 527.235 2165.35 530.764 2233.65 528.529C2233.86 517.287 2234.71 499.611 2229.33 489.863C2205.82 447.266 2142.82 456.665 2127.7 501.076L2051.36 501.012C2056.38 479.133 2059.9 462.098 2074.51 444.177C2098.31 414.993 2134.73 406.024 2170.56 402.412Z"/><path fill="#FEFEFE" transform="scale(0.330323 0.330078)" d="M2225.47 579.462C2227.95 579.07 2228.31 579.136 2230.77 579.655C2237.56 586.056 2234.24 607.109 2231.43 615.148C2226.13 630.623 2214.8 643.296 2200.01 650.282C2179.4 660.167 2159.15 658.159 2138.29 650.772C2136.37 649.19 2134.48 647.567 2132.63 645.903C2125.29 639.224 2122.02 630.649 2121.56 620.797C2119.96 587.231 2162.77 582.466 2187.49 580.711C2199.62 579.849 2213 579.767 2225.47 579.462Z"/><path transform="scale(0.330323 0.330078)" d="M1190.54 402.395C1194.81 401.718 1199.55 401.856 1203.78 401.846C1268.39 401.7 1322.31 434.769 1340.73 498.505C1349.03 527.231 1349.19 549.406 1349.17 579.002C1278.77 579.308 1208.84 577.787 1138.44 579.41C1138.56 590.806 1139.93 599.76 1143.12 610.61C1158.06 661.354 1230.22 675.912 1262.19 632.923C1265.35 628.684 1267.48 624.384 1269.85 619.696C1289.32 619.484 1308.78 619.461 1328.25 619.626C1333.46 619.37 1344.78 617.508 1344.65 625.249C1344.4 640.261 1334.5 656.56 1325.47 668.044C1276.82 729.922 1169.01 734.427 1108.96 687.479C1044.47 635.391 1041.56 513.099 1092.71 450.608C1118.76 418.788 1150.65 406.605 1190.54 402.395Z"/><path fill="#FEFEFE" transform="scale(0.330323 0.330078)" d="M1199.19 463.26C1211.96 461.044 1229.55 465.335 1239.96 472.787C1259.35 486.674 1265.17 506.31 1269.27 528.344L1212.09 528.559C1187.97 528.667 1163.84 528.521 1139.72 528.122C1148.43 490.155 1157.18 471.125 1199.19 463.26Z"/><path transform="scale(0.330323 0.330078)" d="M878.13 402.367C916.053 397.187 968.341 412.417 995.601 440.468C1034.72 480.726 1037.23 526.217 1037.07 579.096C967.108 578.251 897.137 578.226 827.173 579.02C829.212 609.095 835.214 635.854 864.488 650.467C882.078 659.077 902.344 660.441 920.93 654.266C939.743 647.84 950.164 636.855 958.646 619.519C977.122 619.22 996.308 619.607 1014.84 619.738C1020.8 619.559 1029.48 618.343 1033.91 621.91C1035.37 632.755 1020.04 660.067 1013.27 668.661C965.55 729.094 859.7 734.301 800.154 689.263C732.925 638.415 729.979 517.843 778.494 453.556C803.054 421.012 838.548 407.388 878.13 402.367Z"/><path fill="#FEFEFE" transform="scale(0.330323 0.330078)" d="M887.506 463.18C900.167 461.043 919.41 466.26 929.914 473.847C948.876 487.542 953.987 506.671 957.715 528.261C937.505 528.58 916.985 528.435 896.75 528.471C873.733 528.508 850.716 528.387 827.7 528.11C836.287 489.419 847.247 471.992 887.506 463.18Z"/><path transform="scale(0.330323 0.330078)" d="M2767.67 402.407C2802.76 395.78 2860.22 414.725 2885.01 441.748C2922.31 482.398 2925.59 526.697 2925.08 579.087C2854.59 577.868 2786.22 578.794 2715.79 578.985C2716.03 594.756 2717.34 607.09 2724.06 621.554C2743.13 662.604 2805.42 670.883 2835.24 637.397C2840.33 631.683 2843.18 626.206 2846.57 619.408L2905.25 619.615C2911.11 619.35 2921.22 617.405 2921.39 625.452C2921.69 640.151 2909.15 658.457 2900.46 669.451C2852.66 729.966 2743.12 734.649 2685.13 687.016C2654.93 662.395 2638.65 625.033 2635.17 586.679C2626.49 491.157 2665.93 412.936 2767.67 402.407Z"/><path fill="#FEFEFE" transform="scale(0.330323 0.330078)" d="M2773.72 463.316C2786.95 461.141 2804.69 464.604 2815.7 472.125C2835.98 485.98 2841.29 506.073 2845.78 528.346L2788.5 528.575L2715.77 528.168C2722.39 488.811 2735.59 473.757 2773.72 463.316Z"/><path transform="scale(0.330323 0.330078)" d="M575.283 402.369C607.133 398.957 655.202 405.712 681.094 425.825C706.879 445.855 715.067 468.333 719.593 499.18C694.281 499.064 669.605 499.648 644.01 499.289C641.275 489.251 638.495 480.473 630.322 473.216C609.414 454.656 569.958 454.763 550.282 475.241C546.885 478.776 542.341 487.42 543.588 492.205C553.631 530.736 612.522 527.446 643.351 536.536C664.22 542.071 687.792 548.775 704.447 563.207C736.029 590.572 733.175 646.478 706.355 676.164C677.879 707.683 642.338 715.815 601.75 718.386C532.038 718.749 465.512 700.16 456.356 620.699C483.086 621.037 509.868 620.247 536.701 620.742C539.616 630.749 544.237 641.128 552.643 647.683C575.486 665.496 620.375 666.979 640.021 643.414C643.339 639.435 646.249 632.488 645.266 627.411C640.439 602.031 603.81 596.903 582.691 592.451C534.892 582.374 471.392 569.63 464.977 510.714C462.432 487.344 466.012 463.582 481.205 444.578C503.926 416.158 540.709 406.592 575.283 402.369Z"/><path transform="scale(0.330323 0.330078)" d="M2465.24 402.413C2493.85 399.132 2545.73 407.158 2568.98 425.485C2596.02 446.787 2602.57 467.238 2607.61 499.319C2582.24 498.996 2556.48 499.175 2531.08 499.133C2529.26 489.91 2524.89 478.76 2517.87 472.418C2497.8 454.288 2457.1 455.565 2438.28 475.153C2434.37 479.223 2430.49 487.259 2431.33 492.87C2435.34 521.562 2479.69 525.972 2502.9 530.882C2551.54 541.175 2612.04 550.64 2615.1 612.444C2617.11 653.188 2596.08 684.186 2559.75 702.422C2536.38 714.153 2513.18 717.016 2487.25 718.476C2418.9 719.631 2352.22 697.363 2344.6 620.612C2371.26 620.35 2397.93 620.381 2424.59 620.703C2427.12 630.442 2432.14 640.829 2440.32 647.447C2462.17 665.123 2506.98 666.817 2526.79 645.128C2531.02 640.497 2533.05 632.543 2532.3 626.347C2529.45 601.584 2491.46 596.896 2471.64 592.635C2421.6 581.878 2359 570.032 2352.49 507.756C2349.87 484.337 2356.68 460.836 2371.42 442.449C2394.94 413.56 2430.16 406.013 2465.24 402.413Z"/></g></svg>