<?xml version="1.0" encoding="UTF-8"?>
<svg id="Layer_1" data-name="Layer 1" xmlns="http://www.w3.org/2000/svg" viewBox="0 0 513.2 545.85">
  <defs>
    <style>
      .cls-1 {
        fill: #fff;
      }

      .cls-1, .cls-2 {
        stroke-width: 0px;
      }

      .cls-2 {
        fill: blue;
      }
    </style>
  </defs>
  <path class="cls-2" d="m86.39,466.44c-15.54,0-23.29-7.77-23.29-23.29V102.71c0-15.54,7.77-23.29,23.29-23.29h340.42c15.54,0,23.29,7.77,23.29,23.29v340.42c0,15.54-7.77,23.29-23.29,23.29H86.39v.02Z"/>
  <path class="cls-1" d="m185.95,298.94c.53-26.88,8.1-51.99,19.25-76.15,9.47-20.52,21.59-39.27,38.03-54.97,3.07-2.93,6.57-5.44,10.08-7.83,4.48-3.06,9.41-3.22,13.69.06,5.79,4.42,11.83,8.81,16.57,14.25,32.32,37.09,51.48,79.74,52,129.51.22,20.63-6.45,39.42-18.79,56.27-27.22,37.17-84.36,37.32-111.84-.25-13.34-18.24-18.92-38.64-18.99-60.88Z"/>
</svg>